# xmcd
#
# Track frame offsets:
#	150
#	16198
#	33888
#	49548
#	65032
#	83484
#	97961
#	114932
#	129629
#	145760
#
# Disc length: 2152 seconds
#
# Revision: 1
# Processed by: cddbd v1.5.2PL0 Copyright (c) Steve Scherf et al.
# Submitted via: EasyCDDAExtractor 11.5.3.1
#
DISCID=7308660a
DTITLE=Country Piano Players - Underwood Carrie Tribute
DYEAR=2008
DGENRE=Country
TTITLE0=Wasted
TTITLE1=Don't Forget To Remember Me
TTITLE2=Some Hearts
TTITLE3=Jesus, Take The Wheel
TTITLE4=Lessons Learned
TTITLE5=Before He Cheats
TTITLE6=Starts With Goodbye
TTITLE7=We're Young And Beautiful
TTITLE8=Whenever You Remember
TTITLE9=Inside Your Heaven
EXTD=
EXTT0=
EXTT1=
EXTT2=
EXTT3=
EXTT4=
EXTT5=
EXTT6=
EXTT7=
EXTT8=
EXTT9=
PLAYORDER=
